<svg width="1456" height="946" viewBox="0 0 1456 946" fill="none" xmlns="http://www.w3.org/2000/svg">
<g clip-path="url(#clip0_126_1183)">
<path d="M-23.0855 1274.95C-61.0495 1057.45 -4.86791 599.194 523.57 506.246C1052.01 413.297 1386.46 78.1147 1487.64 -77.858" stroke="url(#paint0_linear_126_1183)" stroke-width="1.38656"/>
<path d="M-11.6324 1280.46C-49.5964 1062.95 6.58522 604.703 535.024 511.755C1063.46 418.806 1397.92 83.6234 1499.09 -72.3493" stroke="url(#paint1_linear_126_1183)" stroke-width="1.38656"/>
<path d="M-0.179275 1285.97C-38.1433 1068.46 18.0383 610.212 546.477 517.263C1074.92 424.314 1409.37 89.1319 1510.54 -66.8408" stroke="url(#paint2_linear_126_1183)" stroke-width="1.38656"/>
<path d="M11.2748 1291.48C-26.6892 1073.97 29.4924 615.72 557.931 522.772C1086.37 429.823 1420.82 94.6405 1522 -61.3322" stroke="url(#paint3_linear_126_1183)" stroke-width="1.38656"/>
<path d="M22.728 1296.99C-15.236 1079.48 40.9456 621.229 569.384 528.28C1097.82 435.332 1432.28 100.149 1533.45 -55.8236" stroke="url(#paint4_linear_126_1183)" stroke-width="1.38656"/>
<path d="M34.1811 1302.5C-3.78291 1084.99 52.3987 626.738 580.837 533.789C1109.28 440.84 1443.73 105.658 1544.9 -50.3149" stroke="url(#paint5_linear_126_1183)" stroke-width="1.38656"/>
<path d="M45.6342 1308C7.67022 1090.5 63.8518 632.246 592.29 539.297C1120.73 446.349 1455.18 111.166 1556.36 -44.8063" stroke="url(#paint6_linear_126_1183)" stroke-width="1.38656"/>
<path d="M57.0883 1313.51C19.1243 1096.01 75.3059 637.755 603.744 544.806C1132.18 451.857 1466.64 116.675 1567.81 -39.2978" stroke="url(#paint7_linear_126_1183)" stroke-width="1.38656"/>
<path d="M68.5414 1319.02C30.5774 1101.51 86.759 643.263 615.197 550.315C1143.64 457.366 1478.09 122.184 1579.26 -33.789" stroke="url(#paint8_linear_126_1183)" stroke-width="1.38656"/>
<path d="M79.9946 1324.53C42.0306 1107.02 98.2122 648.772 626.651 555.823C1155.09 462.875 1489.54 127.692 1590.72 -28.2805" stroke="url(#paint9_linear_126_1183)" stroke-width="1.38656"/>
<path d="M91.4477 1330.04C53.4837 1112.53 109.665 654.28 638.104 561.332C1166.54 468.383 1501 133.201 1602.17 -22.7719" stroke="url(#paint10_linear_126_1183)" stroke-width="1.38656"/>
<path d="M102.901 1335.55C64.9368 1118.04 121.118 659.789 649.557 566.84C1178 473.892 1512.45 138.709 1613.62 -17.2634" stroke="url(#paint11_linear_126_1183)" stroke-width="1.38656"/>
</g>
<defs>
<linearGradient id="paint0_linear_126_1183" x1="1078.93" y1="-274.429" x2="266.705" y2="1414.33" gradientUnits="userSpaceOnUse">
<stop stop-color="#E5F1E5"/>
<stop offset="0.394231" stop-color="#E0DAC8"/>
<stop offset="0.629808" stop-color="#D7E3EE"/>
<stop offset="1" stop-color="#CAD2DE"/>
</linearGradient>
<linearGradient id="paint1_linear_126_1183" x1="1090.39" y1="-268.92" x2="278.159" y2="1419.84" gradientUnits="userSpaceOnUse">
<stop stop-color="#E5F1E5"/>
<stop offset="0.394231" stop-color="#E0DAC8"/>
<stop offset="0.629808" stop-color="#D7E3EE"/>
<stop offset="1" stop-color="#CAD2DE"/>
</linearGradient>
<linearGradient id="paint2_linear_126_1183" x1="1101.84" y1="-263.412" x2="289.612" y2="1425.35" gradientUnits="userSpaceOnUse">
<stop stop-color="#E5F1E5"/>
<stop offset="0.394231" stop-color="#E0DAC8"/>
<stop offset="0.629808" stop-color="#D7E3EE"/>
<stop offset="1" stop-color="#CAD2DE"/>
</linearGradient>
<linearGradient id="paint3_linear_126_1183" x1="1113.29" y1="-257.903" x2="301.066" y2="1430.86" gradientUnits="userSpaceOnUse">
<stop stop-color="#E5F1E5"/>
<stop offset="0.394231" stop-color="#E0DAC8"/>
<stop offset="0.629808" stop-color="#D7E3EE"/>
<stop offset="1" stop-color="#CAD2DE"/>
</linearGradient>
<linearGradient id="paint4_linear_126_1183" x1="1124.75" y1="-252.395" x2="312.519" y2="1436.37" gradientUnits="userSpaceOnUse">
<stop stop-color="#E5F1E5"/>
<stop offset="0.394231" stop-color="#E0DAC8"/>
<stop offset="0.629808" stop-color="#D7E3EE"/>
<stop offset="1" stop-color="#CAD2DE"/>
</linearGradient>
<linearGradient id="paint5_linear_126_1183" x1="1136.2" y1="-246.886" x2="323.972" y2="1441.87" gradientUnits="userSpaceOnUse">
<stop stop-color="#E5F1E5"/>
<stop offset="0.394231" stop-color="#E0DAC8"/>
<stop offset="0.629808" stop-color="#D7E3EE"/>
<stop offset="1" stop-color="#CAD2DE"/>
</linearGradient>
<linearGradient id="paint6_linear_126_1183" x1="1147.65" y1="-241.377" x2="335.425" y2="1447.38" gradientUnits="userSpaceOnUse">
<stop stop-color="#E5F1E5"/>
<stop offset="0.394231" stop-color="#E0DAC8"/>
<stop offset="0.629808" stop-color="#D7E3EE"/>
<stop offset="1" stop-color="#CAD2DE"/>
</linearGradient>
<linearGradient id="paint7_linear_126_1183" x1="1159.11" y1="-235.869" x2="346.879" y2="1452.89" gradientUnits="userSpaceOnUse">
<stop stop-color="#E5F1E5"/>
<stop offset="0.394231" stop-color="#E0DAC8"/>
<stop offset="0.629808" stop-color="#D7E3EE"/>
<stop offset="1" stop-color="#CAD2DE"/>
</linearGradient>
<linearGradient id="paint8_linear_126_1183" x1="1170.56" y1="-230.36" x2="358.332" y2="1458.4" gradientUnits="userSpaceOnUse">
<stop stop-color="#E5F1E5"/>
<stop offset="0.394231" stop-color="#E0DAC8"/>
<stop offset="0.629808" stop-color="#D7E3EE"/>
<stop offset="1" stop-color="#CAD2DE"/>
</linearGradient>
<linearGradient id="paint9_linear_126_1183" x1="1182.01" y1="-224.851" x2="369.785" y2="1463.91" gradientUnits="userSpaceOnUse">
<stop stop-color="#E5F1E5"/>
<stop offset="0.394231" stop-color="#E0DAC8"/>
<stop offset="0.629808" stop-color="#D7E3EE"/>
<stop offset="1" stop-color="#CAD2DE"/>
</linearGradient>
<linearGradient id="paint10_linear_126_1183" x1="1193.47" y1="-219.343" x2="381.239" y2="1469.42" gradientUnits="userSpaceOnUse">
<stop stop-color="#E5F1E5"/>
<stop offset="0.394231" stop-color="#E0DAC8"/>
<stop offset="0.629808" stop-color="#D7E3EE"/>
<stop offset="1" stop-color="#CAD2DE"/>
</linearGradient>
<linearGradient id="paint11_linear_126_1183" x1="1204.92" y1="-213.834" x2="392.692" y2="1474.93" gradientUnits="userSpaceOnUse">
<stop stop-color="#E5F1E5"/>
<stop offset="0.394231" stop-color="#E0DAC8"/>
<stop offset="0.629808" stop-color="#D7E3EE"/>
<stop offset="1" stop-color="#CAD2DE"/>
</linearGradient>
<clipPath id="clip0_126_1183">
<rect width="1456" height="946" fill="white"/>
</clipPath>
</defs>
</svg>
